<?xml version="1.0" encoding="utf-8"?>
<!-- Generator: Adobe Illustrator 23.0.6, SVG Export Plug-In . SVG Version: 6.00 Build 0)  -->
<svg version="1.1" id="图层_1" xmlns="http://www.w3.org/2000/svg" xmlns:xlink="http://www.w3.org/1999/xlink" x="0px" y="0px"
	 viewBox="0 0 279.48 232.57" style="enable-background:new 0 0 279.48 232.57;" xml:space="preserve">
<g>
	<path d="M245.13,160.44c-14.93,0-27.72-0.49-42.64-1.03c-24.87-0.91-49.33-4.92-73.37-11.44c-1.6-0.43-3.51,0.19-5.26,0.42
		c-3.8,0.5-7.6,1.03-11.38,1.61c-1.04,0.16-2.76,0.32-2.96,0.91c-1.54,4.39-5.22,4.5-8.87,4.85c-0.42,0.04-0.81,0.45-1.58,0.91
		c0.82,1.38,1.54,2.7,2.35,3.96c3.44,5.34,7.62,10.34,10.14,16.08c1.95,4.44,4.95,7.57,7.86,11.12c4.78,5.81,8.95,12.12,13.04,18.99
		c-2.43-0.63-4.91-1.14-7.3-1.9c-22.01-7-40.29-19.89-56.21-36.28c-6.17-6.35-10.75-13.77-12.49-22.7c-0.2-1.04-1.39-2.02-2.34-2.74
		c-3.7-2.81-7.46-5.54-11.25-8.22c-0.82-0.58-1.85-0.93-2.83-1.19c-2.01-0.52-4.06-0.91-5.7-1.27c3.28-3.2,6.24-6.35,9.48-9.18
		c4.7-4.11,10.63-5.26,16.82-6.17c-3.99-10.01-0.19-18.83,4.29-27.35c7.36-14.01,17.72-25.89,27.83-37.9
		c6.24-7.42,12.9-14.5,19.62-21.5c2.71-2.82,6-5.19,11.9-4.55c-2.23,4.39-4.21,8.12-6.03,11.93c-0.6,1.26-0.87,2.7-1.12,4.09
		c-0.18,1.04,0.17,2.22-0.16,3.19c-1.27,3.77-2.72,7.49-4.11,11.22c-0.08,0.22-0.36,0.53-0.29,0.62c2.65,3.76-0.23,7.35-0.59,10.93
		c-0.42,4.16-2.24,8.17-3.45,12.25c-0.19,0.65-0.7,1.35-0.58,1.92c0.88,4.34-0.32,8.06-2.35,10.2c0.38,5.33,0.68,9.54,0.97,13.74
		c0.17,2.46-0.1,5.03,0.54,7.36c0.98,3.57,2.57,6.98,4.23,11.31c35.77-14.56,71.92-28.23,102.57-53.1c-2.32,2.22-2.26,3.92-7,7.59
		c-8.61,7.4-18.14,13.54-27.51,19.31c-8.15,5.02-16.73,7.35-25.11,12c-1.4,0.77-2.45,1.39-2.76,3.53c-0.28,1.94-2.49,3.61-3.89,5.44
		c1.77,2.1,1.63,6.55,0.01,8.61c0.6,2.02,1.08,3.62,1.7,5.73c1.99,3.83,4.28,8.23,6.56,12.62c3.29,1.56,6.69,2.87,10.44,3.85
		c23.95,6.29,65.97,6.5,73.06,7.4"/>
</g>
</svg>
