<?xml version="1.0" encoding="utf-8"?>
<!-- Generator: Adobe Illustrator 23.0.6, SVG Export Plug-In . SVG Version: 6.00 Build 0)  -->
<svg version="1.1" xmlns="http://www.w3.org/2000/svg" xmlns:xlink="http://www.w3.org/1999/xlink" x="0px" y="0px"
	 viewBox="0 0 1080 1080" style="enable-background:new 0 0 1080 1080;" xml:space="preserve">
<style type="text/css">
	.st0{fill:#F7F2F0;}
	.st1{fill:#E8CBC1;}
	.st2{fill:#2B0C00;}
</style>
<g id="图层_2">
	<circle class="st0" cx="540" cy="540" r="540"/>
</g>
<g id="图层_1">
	<path class="st1" d="M446.05,532.23L567,616c0,0-89.42,32.27-140,13C385,613,446.05,532.23,446.05,532.23z"/>
	<path class="st1" d="M170.25,266C135,431,243.88,522.55,271,540s79.5-129.92,79.5-129.92S174.5,246.13,170.25,266z"/>
	<g>
		<path class="st2" d="M925,353c-24.13,5.55-313-37-364-21c-24.02,7.54-17,8-12,14c27,26,26,85-23.03,91.65l0.19,0.31
			C700,461,853.21,506.02,1027,571c-65.09,0-406.17-90.06-424.07-39.98c-19.19,53.69,327.75,252.38,388.69,265.2l0.4-0.28
			C785,769,600,691,448.55,549.82l-0.22,0.33C484,604,466,656,376.79,638.41C296.84,622.65,522,878,618,972
			c-167-33-445.47-260.65-413-399c15.46-65.87,160.09-94.07,110-166l0,0c-54.44,3.37-138.91-67.94-144.49-143.87l0.17,0.32
			c65.85-44.12,185.33,17.06,207.78,76.07l0.37-0.24c40.88-10.94,18.91-62.33,39.45-91.58C447.87,205.55,489,189,561,203
			C682.76,226.67,843.6,319.84,925,353L925,353z"/>
	</g>
</g>
</svg>
